<svg version="1.1" id="Layer_1" xmlns="http://www.w3.org/2000/svg" xmlns:xlink="http://www.w3.org/1999/xlink" x="0px" y="0px"
	 width="100%" viewBox="0 0 174 127" enable-background="new 0 0 174 127" xml:space="preserve">
<path fill="#FDFFFF" opacity="1.000000" stroke="none" 
	d="
M170.000000,1.000001 
	C171.665451,1.000000 173.330902,1.000000 174.997253,1.000000 
	C174.998169,43.301178 174.998169,85.602356 174.998169,127.951767 
	C117.074577,127.951767 59.149105,127.951767 1.111814,127.951767 
	C1.111814,85.772408 1.111814,43.544426 1.111814,1.000000 
	C56.020489,1.000000 111.041588,1.000000 166.471634,1.335240 
	C151.432312,15.628257 136.010956,29.616055 120.509918,43.514984 
	C117.851814,45.898350 114.853958,47.902798 111.856529,49.774742 
	C102.017906,36.158154 92.361168,22.830458 82.605339,9.575689 
	C81.829163,8.521134 81.344955,5.298212 78.563751,8.255587 
	C53.827896,33.799873 29.397867,59.244568 3.932595,85.767502 
	C21.284992,85.767502 37.025719,85.840408 52.762276,85.618225 
	C53.922810,85.601845 55.617222,83.655830 56.100830,82.270798 
	C58.273170,76.049271 60.016590,69.679276 62.100521,63.424747 
	C62.667595,61.722778 63.882427,60.236633 65.161377,58.835335 
	C67.696503,65.611664 69.795929,72.230057 72.085793,78.781891 
	C72.846947,80.959740 74.096931,82.966759 75.462280,85.255295 
	C95.739502,85.569244 115.678596,85.619576 135.615509,85.855415 
	C138.597656,85.890694 139.937592,84.885490 140.924988,82.105949 
	C150.538696,55.042946 160.288773,28.028372 170.000000,1.000001 
z"/>
<path fill="#089CDB" opacity="1.000000" stroke="none" 
	d="
M169.625000,1.000001 
	C160.288773,28.028372 150.538696,55.042946 140.924988,82.105949 
	C139.937592,84.885490 138.597656,85.890694 135.615509,85.855415 
	C115.678596,85.619576 95.739502,85.569244 75.570999,84.941101 
	C80.908844,79.281349 86.507256,74.171684 92.036942,68.988693 
	C98.726036,62.718979 105.356956,56.387207 112.013054,50.082291 
	C114.853958,47.902798 117.851814,45.898350 120.509918,43.514984 
	C136.010956,29.616055 151.432312,15.628257 166.940292,1.335240 
	C167.750000,1.000000 168.500000,1.000000 169.625000,1.000001 
z"/>
<path fill="#099BDA" opacity="1.000000" stroke="none" 
	d="
M64.799973,58.651436 
	C63.882427,60.236633 62.667595,61.722778 62.100521,63.424747 
	C60.016590,69.679276 58.273170,76.049271 56.100830,82.270798 
	C55.617222,83.655830 53.922810,85.601845 52.762276,85.618225 
	C37.025719,85.840408 21.284992,85.767502 3.932595,85.767502 
	C29.397867,59.244568 53.827896,33.799873 78.608185,8.641739 
	C78.819206,9.902426 78.796333,10.910519 78.523369,11.845612 
	C73.967445,27.452965 69.380226,43.051182 64.799973,58.651436 
z"/>
<path fill="#03648D" opacity="1.000000" stroke="none" 
	d="
M65.161385,58.835335 
	C69.380226,43.051182 73.967445,27.452965 78.523369,11.845612 
	C78.796333,10.910519 78.819206,9.902426 78.914009,8.542149 
	C81.344955,5.298212 81.829163,8.521134 82.605339,9.575689 
	C92.361168,22.830458 102.017906,36.158154 111.856529,49.774738 
	C105.356956,56.387207 98.726036,62.718979 92.036942,68.988693 
	C86.507256,74.171684 80.908844,79.281349 75.232155,84.737686 
	C74.096931,82.966759 72.846947,80.959740 72.085793,78.781891 
	C69.795929,72.230057 67.696503,65.611664 65.161385,58.835335 
z"/>
</svg>